<?xml version="1.0" standalone="no"?><!DOCTYPE svg PUBLIC "-//W3C//DTD SVG 1.1//EN" "http://www.w3.org/Graphics/SVG/1.1/DTD/svg11.dtd"><svg t="1528192028857" class="icon" style="" viewBox="0 0 1024 1024" version="1.1" xmlns="http://www.w3.org/2000/svg" p-id="3091" xmlns:xlink="http://www.w3.org/1999/xlink" width="32" height="32"><defs><style type="text/css"></style></defs><path d="M128 128a64 64 0 0 0-64 64v704a64 64 0 0 0 64 64h768a64 64 0 0 0 64-64V192a64 64 0 0 0-64-64H128z m0-64h768a128 128 0 0 1 128 128v704a128 128 0 0 1-128 128H128a128 128 0 0 1-128-128V192a128 128 0 0 1 128-128z" fill="#DC143C" p-id="3092"></path><path d="M256 544a32 32 0 0 1 0 64H128a32 32 0 0 1 0-64h128zM576 544a32 32 0 0 1 0 64H448a32 32 0 0 1 0-64h128zM896 544a32 32 0 1 1 0 64h-128a32 32 0 0 1 0-64h128zM256 704a32 32 0 0 1 0 64H128a32 32 0 0 1 0-64h128zM576 704a32 32 0 0 1 0 64H448a32 32 0 0 1 0-64h128zM896 704a32 32 0 1 1 0 64h-128a32 32 0 1 1 0-64h128zM960 288a32 32 0 1 1 0 64H64a32 32 0 0 1 0-64h896zM288 32a32 32 0 0 1 64 0v128a32 32 0 0 1-64 0v-128zM672 32a32 32 0 1 1 64 0v128a32 32 0 1 1-64 0v-128z" fill="#DC143C" p-id="3093"></path></svg>