<?xml version="1.0" standalone="no"?><!DOCTYPE svg PUBLIC "-//W3C//DTD SVG 1.1//EN" "http://www.w3.org/Graphics/SVG/1.1/DTD/svg11.dtd"><svg t="1528191898081" class="icon" style="" viewBox="0 0 1024 1024" version="1.1" xmlns="http://www.w3.org/2000/svg" p-id="2141" xmlns:xlink="http://www.w3.org/1999/xlink" width="32" height="32"><defs><style type="text/css"></style></defs><path d="M873.206637 334.277514c-0.25056-5.158375-0.402599-10.321614-0.748031-15.473908-0.800333-12.045127-1.729594-24.079307-4.158567-35.937122-0.777223-6.898916-2.582228-13.599572-4.521027-20.21752-11.379805-38.851403-34.973804-68.270316-69.754215-88.656903-18.815114-11.028291-39.482669-16.701165-61.015021-19.673829-25.036544-3.457972-50.225127-3.476217-75.402763-3.972472-1.402406-0.029191-2.803597-0.239613-4.206003-0.368542h-282.828778c-5.029446 0.754113-10.106327 0.490173-15.158883 0.560719-21.555462 0.285833-43.086598 0.76506-64.472993 3.826514-20.73202 2.967799-40.861965 7.926698-59.210016 18.464816-34.1905 19.633691-58.064251 47.911703-70.355072 85.490846-5.467318 16.718194-7.798986 34.115089-9.200176 51.633615C151.170419 322.524301 150.714302 335.113119 150.568345 347.718966c-0.017028 1.056974 0.04622 2.132193-0.602074 3.066319v321.01486c0.881825 1.898661 0.589911 3.931117 0.619102 5.911271 0.291915 21.543299 1.629857 42.975914 5.064719 64.291763 5.590165 34.669726 21.257466 63.841728 46.767155 87.815215 14.866968 13.97298 31.929378 24.423523 51.077761 31.462315 0.975481 0.362461 2.032456 0.519365 3.049291 0.771141 1.308751-0.817361 2.757377-0.806414 4.199922-0.771141-1.442545-0.029191-2.886306-0.041355-4.19384 0.771141 9.025027 3.24755 18.400352 5.233786 27.800002 6.794313 16.028545 2.669802 32.245619 3.808269 48.490667 4.368989 0.642212 0.02311 1.471736-0.198259 1.676077 0.800332H688.756735c0.20434-1.004673 1.027783-0.76506 1.671212-0.788169 10.667047-0.43179 21.326796-0.987644 31.947622-2.126112 16.052872-1.723513 31.883158-4.562382 47.223272-9.760895 5.695984-1.700403 10.946798-4.39818 16.29735-6.94027 9.766977-4.643875 18.739702-10.491898 27.128598-17.226612 16.76563-13.470643 30.411422-29.605008 40.236782-48.765553 7.301514-14.247866 12.12662-29.400668 14.96549-45.160408 0.245695-1.367133 0.064464-2.809678 0.081492-4.212085-1.198066-0.748031-1.419435-1.781895-1.419434-2.868061 0-0.327188 0.02311-0.654375 0.041354-0.981563a13.938923 13.938923 0 0 0-0.041354 0.981563c0 1.086166 0.222585 2.12003 1.419434 2.868061 1.600665-5.829778 1.904743-11.869978 2.763459-17.810441 1.402406-9.731704 1.513091-19.586255 2.132193-29.394586 0.064464-1.027783-0.683567-2.382753 0.817361-3.061454v-7.067983-29.698664-280.002071-29.698664-6.361306c-1.007105-0.197042-0.785737-1.014403-0.814929-1.662697z m-33.523961 187.79354c0.099737 46.422939 0.450035 92.844661-0.379489 139.267601-0.385571 21.801157-1.694321 43.496495-5.823697 64.987492-4.252223 22.122263-13.412261 41.989486-27.630935 59.227044-20.498488 24.849232-46.446049 41.305919-78.317044 47.871565-17.600019 3.627039-35.405595 5.245949-53.315773 5.666793-66.55775 1.577555-133.128879 0.473145-199.698792 0.71884-34.757301 0.128929-69.519467 0.133794-104.276767-0.162986-23.435879-0.198259-46.860811-1.069137-70.004775-5.421098-30.709418-5.777477-56.552376-20.223602-77.499683-43.367566-18.289667-20.211439-29.009015-43.99275-33.489905-70.811189-4.047883-24.248374-4.702258-48.695008-4.754559-73.164751-0.187312-86.951635-0.192177-173.902054-0.158121-260.85977 0.006082-13.897569 0.595992-27.793921 0.904935-41.691489 0.02311-1.033864 0.321106-2.138275-0.537609-3.0201-1.302669-1.606747-1.86947-3.476217-2.015427-5.391907 0.145957 1.91569 0.712758 3.78516 2.015427 5.391907 0.671404-7.015681 1.279559-14.037444 2.015427-21.040963 1.588502-15.152801 3.837461-30.299521 9.656293-44.395348 19.400159-47.000687 53.882574-76.203095 104.06148-86.180494 22.985844-4.568464 46.329283-5.385825 69.654478-5.438126 90.128639-0.193393 180.257278-0.20434 270.393215-0.128929 25.205611 0.02311 50.389329 0.572882 75.438036 4.182893 37.677663 5.432045 68.439383 22.670819 92.079602 52.573823 18.412515 23.289921 26.426787 50.383247 29.27782 79.398344 0.666538 6.769987 1.348889 13.541189 2.02759 20.311176-0.835606 0.735868-0.631265 1.717431-0.602074 2.640611 1.920555 59.599235 0.851418 119.224013 0.980347 178.836627z" fill="#DC143C" p-id="2142"></path><path d="M596.581045 284.292c7.90967 0.128929 14.38166-6.261569 14.387742-14.212593 0.006082-7.792904-6.256703-14.112856-14.043526-14.171238-7.845205-0.058383-14.229621 6.115611-14.323277 13.850132-0.086358 7.972918 6.099799 14.40477 13.979061 14.533699zM427.007842 340.872351c7.786823-0.012163 14.165157-6.227512 14.258813-14.031362a14.143263 14.143263 0 0 0-14.218675-14.364632c-7.828177 0.006082-14.1311 6.26765-14.148128 14.060554-0.081493 6.835667 5.181485 14.353685 14.10799 14.33544zM597.049325 397.464866c7.786823-0.344216 14.008253-6.594838 13.920678-14.440043-0.087574-7.809932-6.431852-14.0192-14.294086-13.990008-7.961971 0.035273-14.160292 6.437934-14.066636 14.527617-0.572882 6.192239 5.928299 14.281923 14.440044 13.902434zM596.862013 425.609084c-7.862234-0.035273-14.212593 6.203186-14.253948 14.002172-0.041355 7.991163 6.296842 14.393823 14.241785 14.375578 7.809932-0.017028 14.118937-6.367388 14.118937-14.206511 0.006082-7.814798-6.29076-14.135966-14.106774-14.171239zM314.085536 397.441756c7.90967-0.15812 14.212593-6.600919 14.054473-14.568972-0.15812-7.757631-6.536455-13.908515-14.375579-13.839186-7.926698 0.070546-14.083664 6.47199-13.985143 14.539781-0.631265 7.811149 7.465716 14.003388 14.306249 13.868377zM709.83662 397.458784c7.926698-0.099737 14.346387-6.454962 14.258813-14.429096-0.081493-7.809932-6.413607-14.014334-14.264895-13.990008-7.833042 0.02311-13.756476 6.309005-14.189483 14.118937-0.448819 8.178475 7.86345 14.382877 14.195565 14.300167zM426.920267 284.302947a14.218675 14.218675 0 0 0 14.352469-14.317196c-0.041355-7.798986-6.355225-14.066636-14.17732-14.072717-7.851287-0.006082-13.97298 6.22143-14.235703 14.037444-0.262723 7.961971 6.740795 14.294086 14.060554 14.352469zM653.279379 312.471492a14.086097 14.086097 0 0 0-14.106775 14.125018c0.006082 7.839124 6.250622 14.17732 14.060555 14.253948 7.938861 0.081493 14.370714-6.379551 14.306249-14.364632-0.065681-7.798986-6.402661-14.026498-14.260029-14.014334zM257.229082 538.736947c-7.95589 0.052301-13.990008 6.44888-14.054472 14.556809-0.064464 7.599511 6.857561 13.862296 14.206511 13.833104 7.926698-0.029191 14.306249-6.496317 14.189483-14.475316-0.110684-7.786823-6.478072-13.966898-14.341522-13.914597zM766.564145 510.592728c7.920617-0.187312 14.264894-6.594838 14.106774-14.579919-0.152039-7.786823-6.536455-13.908515-14.416933-13.844051-7.90967 0.070546-14.054473 6.519427-13.937707 14.633437-0.735868 7.440174 7.640865 13.947437 14.247866 13.790533zM539.877846 369.040896c-7.90967 0.116766-13.97298 6.565646-13.833104 14.702766-0.648294 6.350359 6.542536 13.937707 14.423015 13.698094 7.774659-0.233532 13.985143-6.519427 13.937707-14.352469-0.052301-7.926698-6.4951-14.166373-14.527618-14.048391zM597.05419 340.878433c7.769794-0.233532 13.97298-6.536455 13.914597-14.364632-0.058383-7.926698-6.501182-14.148129-14.539781-14.037444-7.874397 0.104603-13.966898 6.588756-13.814859 14.708848-0.473145 6.548618 6.571728 13.932842 14.440043 13.693228zM709.890138 312.476357c-7.961971 0-14.206512 6.355225-14.142047 14.387742-0.566801 7.126366 6.857561 14.270976 14.481397 14.019199 7.757631-0.256642 13.94987-6.577809 13.879324-14.40477-0.082709-7.791688-6.385632-14.007037-14.218674-14.002171zM709.854865 482.173624a14.095827 14.095827 0 0 0-14.118938 14.118937c0 7.839124 6.250622 14.183402 14.054473 14.264894 7.938861 0.081493 14.375579-6.373469 14.311114-14.352469-0.058383-7.805067-6.396579-14.043526-14.246649-14.031362zM653.320733 454.011161c7.915751-0.081493 14.294086-6.44888 14.218675-14.416934-0.075411-7.774659-6.408742-14.002171-14.235703-13.990008-7.949808 0.012163-14.183402 6.367388-14.125019 14.40477-0.568017 7.015681 6.72255 14.083664 14.142047 14.002172zM427.013923 482.173624c-7.828177 0.02311-13.879324 6.279813-14.160291 14.101908-0.297996 8.306187 7.424362 14.33544 14.17732 14.300168 7.920617-0.041355 14.329359-6.44888 14.241784-14.416933-0.087574-7.79412-6.419689-14.009469-14.258813-13.985143zM370.06503 538.743028c-7.716276 0.145957-13.814859 6.571728-13.721204 14.458288-0.5145 7.050954 6.799178 14.060554 14.206512 13.94987 7.915751-0.116766 14.264894-6.507263 14.160292-14.481398-0.111901-7.904805-6.602136-14.078799-14.6456-13.92676zM370.363026 482.173624c-7.93278 0.04622-14.112856 6.44888-14.014334 14.51667-0.525446 6.875806 6.700657 14.0192 14.258813 13.885406 7.90967-0.139876 14.252731-6.577809 14.101908-14.533699-0.145957-7.775876-6.496317-13.915813-14.346387-13.868377zM653.518992 284.326057c7.920617-0.233532 14.218675-6.682412 14.014334-14.667494-0.198259-7.780741-6.607001-13.850132-14.504508-13.750394-7.90967 0.099737-13.99609 6.571728-13.850132 14.721011-0.69573 7.312461 7.599511 13.896352 14.340306 13.696877zM540.134488 312.471492c-7.949808 0.017028-14.171239 6.413607-14.089746 14.475316-0.543691 7.839124 7.511936 14.160292 14.475316 13.931625 7.774659-0.251776 13.97298-6.588756 13.891487-14.423015-0.087574-7.792904-6.425771-14.002171-14.277057-13.983926zM483.647792 538.736947c-7.845205 0-14.17732 6.285895-14.17732 14.066635 0 8.003326 6.413607 14.393823 14.358551 14.317196 7.792904-0.075411 14.048391-6.467125 14.008253-14.306249-0.036489-7.797769-6.368604-14.077583-14.189484-14.077582zM313.99188 340.884515c7.90967-0.116766 14.264894-6.525508 14.148129-14.48748-0.116766-7.90967-6.600919-14.072717-14.644384-13.914597-7.711411 0.152039-13.808778 6.583891-13.716338 14.469235-0.490173 7.080146 6.811341 14.037444 14.212593 13.932842zM483.30236 482.173624c-7.874397 0.099737-13.966898 6.583891-13.820941 14.714929-0.625184 6.467125 6.665384 13.937707 14.433962 13.692012 7.774659-0.245695 13.990008-6.542536 13.931625-14.364632-0.06933-7.938861-6.4951-14.142047-14.544646-14.042309zM540.234225 510.586647c7.786823-0.128929 14.112856-6.315086 14.171239-14.125019 0.058383-7.949808-6.309005-14.312331-14.294086-14.288004-7.803851 0.02311-13.785668 6.315086-14.15421 14.118937-0.356379 7.640865 7.202993 14.410852 14.277057 14.294086zM653.542102 510.574484c7.90967-0.192177 14.189483-6.665384 13.990008-14.638302-0.192177-7.769794-6.577809-13.850132-14.458288-13.76864-7.903588 0.081493-14.037444 6.536455-13.908515 14.633437-0.419627 6.810125 6.695792 13.960817 14.376795 13.773505zM314.114728 454.028189c7.926698-0.233532 14.22354-6.671465 14.025281-14.662628-0.192177-7.780741-6.607001-13.868377-14.498426-13.756477-7.926698 0.110684-13.99609 6.5547-13.862296 14.708848-0.69573 7.355032 7.646947 13.90365 14.335441 13.710257zM766.645638 284.326057c7.920617-0.233532 14.22354-6.676331 14.019199-14.662628-0.198259-7.786823-6.594838-13.856214-14.487479-13.756477-7.90967 0.104603-14.008253 6.571728-13.862295 14.708848-0.693297 7.378142 7.648163 13.909732 14.330575 13.710257zM710.286655 284.326057c7.774659-0.344216 13.937707-6.671465 13.814859-14.521536-0.122847-7.786823-6.484154-13.94987-14.346387-13.902434-7.949808 0.052301-14.125019 6.47199-14.014334 14.562891-0.746815 7.576401 7.752766 14.159075 14.545862 13.861079zM313.881196 538.743028a14.083664 14.083664 0 0 0-14.101909 14.089746c0.052301 8.037383 5.987899 14.160292 14.171239 14.270976 7.774659 0.104603 14.1311-6.256703 14.194348-14.054473 0.065681-7.957106-6.278597-14.318412-14.263678-14.306249zM257.235164 425.604219c-7.803851 0.035273-14.054473 6.373469-14.025281 14.212593 0.035273 7.809932 6.344278 14.1311 14.148128 14.171239 7.786823 0.041355 14.160292-6.279813 14.218675-14.095828 0.052301-7.974134-6.321168-14.323277-14.341522-14.288004zM483.852133 340.884515c7.920617-0.210422 14.194348-6.676331 13.985143-14.656547-0.20434-7.774659-6.588756-13.837969-14.475317-13.750395-7.897507 0.087574-14.014334 6.542536-13.885405 14.656547-0.637347 6.501182 6.611866 13.954735 14.375579 13.750395zM766.34156 312.471492c-7.816014 0.035273-14.072717 6.367388-14.031363 14.206511 0.035273 7.833042 6.332115 14.148129 14.135966 14.17732 7.938861 0.029191 14.329359-6.454962 14.22354-14.446125-0.103386-7.798986-6.447664-13.97298-14.328143-13.937706zM709.573897 538.736947c-7.880478 0.099737-13.97298 6.594838-13.827023 14.744121-0.69573 7.238266 7.588564 13.891487 14.370714 13.668902 7.920617-0.251776 14.212593-6.717685 13.985143-14.702767-0.228666-7.775876-6.613082-13.803913-14.528834-13.710256zM313.775377 482.167542c-7.798986 0.052301-14.054473 6.413607-13.99609 14.241785 0.058383 7.822096 6.373469 14.125019 14.17732 14.142047 7.926698 0.017028 14.317196-6.496317 14.189483-14.475317-0.128929-7.786823-6.502398-13.960817-14.370713-13.908515zM370.29248 397.424728c7.938861 0.139876 14.429096-6.279813 14.416933-14.253948-0.012163-7.816014-6.319952-14.118937-14.142047-14.135965-7.857369-0.012163-14.171239 6.209267-14.22354 14.019199-0.053518 7.845205 6.149668 14.229621 13.948654 14.370714zM257.019877 369.045761c-7.880478 0.116766-13.94987 6.588756-13.803913 14.721011-0.437872 6.548618 6.548618 13.914597 14.463153 13.681066 7.763713-0.233532 13.966898-6.559565 13.897569-14.381661-0.070546-7.927915-6.519427-14.143263-14.556809-14.020416zM483.81686 397.447838c7.926698-0.198259 14.206512-6.642274 14.014334-14.621274-0.187312-7.780741-6.548618-13.856214-14.440043-13.785668-7.891425 0.070546-14.031363 6.525508-13.920679 14.627355-0.625184 6.570512 6.647139 13.971764 14.346388 13.779587zM370.4506 312.476357c-7.828177 0.012163-14.1311 6.326033-14.112855 14.1311 0.017028 7.845205 6.261569 14.17732 14.072717 14.253948 7.938861 0.075411 14.375579-6.396579 14.300168-14.370714-0.077844-7.809932-6.403877-14.031363-14.26003-14.014334zM370.80698 454.023324c7.780741-0.304078 13.985143-6.594838 13.897568-14.433962-0.081493-7.798986-6.425771-14.014334-14.270976-13.985143-7.95589 0.02311-14.171239 6.413607-14.089746 14.487479-0.783304 7.657894 7.750333 14.194348 14.463154 13.931626zM427.107579 369.040896c-7.833042-0.017028-14.15421 6.215349-14.194348 13.990008-0.041355 7.944943 6.186157 14.317196 14.072717 14.387742 7.786823 0.075411 14.171239-6.173994 14.288005-13.97298a14.139614 14.139614 0 0 0-14.166374-14.40477zM540.169761 425.604219c-7.839124 0.012163-14.142047 6.315086-14.125019 14.125019 0.012163 7.974134 6.431852 14.346387 14.364632 14.252731 7.809932-0.087574 14.043526-6.47199 13.99609-14.329359-0.052301-7.809932-6.378334-14.060554-14.235703-14.048391zM709.865811 425.604219c-7.803851 0.006082-13.955951 6.302923-14.165157 14.072717-0.239613 8.710002 7.651812 14.35855 14.171239 14.329359 7.926698-0.035273 14.323277-6.442799 14.241785-14.40477-0.093656-7.79412-6.408742-14.003388-14.247867-13.997306zM766.551982 425.609084c-7.833042-0.041355-13.931625 6.169129-14.317196 13.92676-0.379489 7.70533 6.915944 14.492345 14.101909 14.475317 7.915751-0.017028 14.35855-6.349143 14.329359-14.312331-0.024326-7.768578-6.315086-14.054473-14.114072-14.089746zM596.674701 538.736947a14.099476 14.099476 0 0 0-14.072717 14.165157c0.02311 7.828177 6.296842 14.15421 14.101908 14.218674 7.93278 0.058383 14.352469-6.413607 14.264895-14.399905-0.081493-7.803851-6.430636-14.013118-14.294086-13.983926zM667.538191 552.966568c0.029191-7.95589-6.367388-14.281923-14.393823-14.229621-7.786823 0.052301-14.031363 6.425771-13.97298 14.264894 0.058383 7.809932 6.390498 14.106774 14.20043 14.112856 7.788039 0.012163 14.143263-6.332115 14.166373-14.148129zM257.474777 255.906952c-7.833042-0.041355-13.931625 6.156966-14.329359 13.914597-0.391652 7.763713 6.969462 14.504508 14.077583 14.492345 7.915751-0.012163 14.375579-6.344278 14.352468-14.288005-0.017028-7.797769-6.296842-14.077583-14.100692-14.118937zM766.528872 538.736947c-7.857369-0.017028-14.183402 6.215349-14.22354 14.019199-0.041355 7.857369 6.144803 14.229621 13.94987 14.370714 7.938861 0.139876 14.433962-6.285895 14.410852-14.258813-0.018245-7.805067-6.333331-14.120153-14.137182-14.1311zM370.549122 284.31511c7.90967-0.104603 14.277058-6.519427 14.160291-14.475316-0.116766-7.780741-6.442799-13.94987-14.294086-13.92676-7.920617 0.017028-14.148129 6.413607-14.072717 14.463153-0.537609 6.881887 6.648355 14.043526 14.206512 13.938923zM596.307375 482.173624c-7.722358 0.162986-13.79175 6.588756-13.692012 14.510589-0.5145 6.951217 6.769987 14.043526 14.277058 13.897568 7.90967-0.15812 14.545862-6.647139 14.008252-14.575053-0.55707-8.056844-6.082771-14.014334-14.593298-13.833104zM426.832693 538.736947c-7.920617 0.075411-14.048391 6.530373-13.920678 14.656546-0.71884 7.424362 7.670057 13.943788 14.277057 13.762558 7.926698-0.210422 14.252731-6.624029 14.077583-14.60911-0.169067-7.775876-6.553483-13.88054-14.433962-13.809994zM257.375039 312.476357c-7.961971-0.006082-14.212593 6.338196-14.160291 14.370713-0.566801 7.091093 6.740795 14.101909 14.112855 14.037445 7.915751-0.070546 14.323277-6.437934 14.247866-14.393824-0.075411-7.786823-6.378334-14.008253-14.20043-14.014334zM540.052995 284.31511c7.920617-0.017028 14.364632-6.332115 14.352469-14.288004-0.012163-7.792904-6.29076-14.077583-14.101909-14.112856-7.845205-0.035273-13.955951 6.163047-14.329359 13.914597-0.373407 7.891425 7.080146 14.503291 14.078799 14.486263zM766.488734 369.040896c-7.833042-0.006082-14.171239 6.22143-14.17732 14.008253-0.012163 8.072656 5.917353 14.194348 14.083664 14.352469 7.920617 0.15812 14.33544-6.355225 14.277057-14.323278-0.059599-7.781957-6.368604-14.032579-14.183401-14.037444zM412.912015 439.658692c-0.017028 7.979 6.361306 14.38166 14.300167 14.329359 7.816014-0.052301 14.072717-6.396579 14.060554-14.264895-0.012163-7.798986-6.338196-14.106774-14.160291-14.118937-7.868315-0.006082-14.182185 6.238459-14.20043 14.054473zM483.833888 454.011161c7.90967-0.198259 14.206512-6.665384 14.002171-14.638302-0.198259-7.769794-6.571728-13.844051-14.452206-13.76864-7.897507 0.075411-14.031363 6.536455-13.908515 14.638302-0.619102 6.600919 6.671465 13.962033 14.35855 13.76864zM639.172604 383.258354a14.206512 14.206512 0 0 0 14.160292 14.160292c7.786823 0.035273 14.160292-6.29076 14.206512-14.106774 0.052301-7.961971-6.326033-14.312331-14.346388-14.277057-7.800202 0.040138-14.055689 6.384416-14.020416 14.223539zM257.345848 482.173624c-7.833042 0.006082-14.142047 6.296842-14.135965 14.095827 0 7.857369 6.232377 14.194348 14.037444 14.281923 7.938861 0.093656 14.387742-6.361306 14.329359-14.341522-0.058383-7.797769-6.385632-14.04231-14.230838-14.036228zM540.175842 538.743028c-7.833042 0-14.1311 6.29076-14.1311 14.101909 0 7.851287 6.232377 14.189483 14.043526 14.277058 7.944943 0.087574 14.38166-6.361306 14.323277-14.346388-0.064464-7.800202-6.390498-14.038661-14.235703-14.032579zM483.787668 284.292c7.798986-0.064464 14.077583-6.431852 14.048391-14.264894-0.02311-7.803851-6.326033-14.095827-14.15421-14.112856-7.851287-0.02311-14.183402 6.227512-14.212593 14.025281-0.029191 7.989946 6.379551 14.410852 14.318412 14.352469zM314.056345 284.292c7.798986-0.041355 14.089746-6.390498 14.083664-14.22354 0-7.809932-6.285895-14.112856-14.112856-14.15421-7.851287-0.041355-14.20043 6.192239-14.252731 13.990008-0.047436 7.985081 6.33698 14.42788 14.281923 14.387742zM689.543689 740.012078c13.482807 7.657894 27.262393 7.535046 40.66249 0.379489 14.416933-7.70533 22.116181-20.106836 22.845968-36.59758 0.689648-3.931117-0.460982-7.611674-1.086166-11.455216-3.014018-18.570635-23.879832-33.992241-42.579396-33.098253-16.169637 0.777223-28.810757 7.997244-36.883412 22.104019-8.301322 14.504508-7.663975 29.488242 0.473145 43.706916 3.709748 6.467125 8.891233 12.367449 16.567371 14.960625zM477.19283 712.29965c3.007937 13.102101 10.421352 22.922596 22.869078 28.594253 27.279421 14.283139 60.763245-5.158375 62.253226-36.147544 2.021509-18.400352-10.713267-37.783482-30.837131-43.676509-31.620435-9.258559-61.652368 19.142301-54.285173 51.2298z" fill="#DC143C" p-id="2143"></path></svg>