<?xml version="1.0" standalone="no"?><!DOCTYPE svg PUBLIC "-//W3C//DTD SVG 1.1//EN" "http://www.w3.org/Graphics/SVG/1.1/DTD/svg11.dtd"><svg t="1527472741509" class="icon" style="" viewBox="0 0 1024 1024" version="1.1" xmlns="http://www.w3.org/2000/svg" p-id="1574" xmlns:xlink="http://www.w3.org/1999/xlink" width="16" height="16"><defs><style type="text/css"></style></defs><path d="M772.509199 969.097576 248.255107 969.097576c-72.381517 0-131.063011-58.682517-131.063011-131.063011L117.192096 423.151439l87.314625 0 0-65.61951c0-168.765705 136.932696-305.6984 305.6984-305.6984 168.763658 0 305.696354 136.932696 305.696354 305.6984l0 65.442478 87.493703 0 0 414.883125C903.395178 910.415059 844.712661 969.097576 772.509199 969.097576L772.509199 969.097576 772.509199 969.097576zM204.683752 772.415055c0 60.283991 48.906873 109.190865 109.192911 109.190865l393.010979 0c60.286038 0 109.192911-48.906873 109.192911-109.190865L816.080553 510.465041 204.683752 510.465041 204.683752 772.415055 204.683752 772.415055zM728.759789 376.382253c0-131.063011-84.293825-237.227959-215.357859-237.227959-122.165364 0-221.397413 99.047854-221.397413 221.397413l0 62.421678 436.755272 0L728.759789 376.382253 728.759789 376.382253zM521.232269 794.291295l-21.877263 0c-18.139126 0-32.722262-14.583137-32.722262-32.720216L466.632743 630.508068c0-18.145266 14.583137-32.722262 32.722262-32.722262l21.877263 0c18.139126 0 32.722262 14.754029 32.722262 32.722262l0 131.063011C554.131563 779.709181 539.370371 794.291295 521.232269 794.291295L521.232269 794.291295 521.232269 794.291295zM521.232269 794.291295" p-id="1575" fill="#bfbfbf"></path></svg>