<?xml version="1.0" standalone="no"?><!DOCTYPE svg PUBLIC "-//W3C//DTD SVG 1.1//EN" "http://www.w3.org/Graphics/SVG/1.1/DTD/svg11.dtd"><svg t="1527485697500" class="icon" style="" viewBox="0 0 1024 1024" version="1.1" xmlns="http://www.w3.org/2000/svg" p-id="4295" xmlns:xlink="http://www.w3.org/1999/xlink" width="32" height="32"><defs><style type="text/css"></style></defs><path d="M583.852 120.53H435.026c-205.486 0-372.065 166.579-372.065 372.065v55.81c0 205.486 166.579 372.065 372.065 372.065h148.826c205.486 0 372.065-166.579 372.065-372.065v-55.81c0-205.486-166.579-372.065-372.065-372.065z m-27.905 762.734h-93.016c-200.348 0-362.763-162.414-362.763-362.763 0-200.348 162.416-362.764 362.763-362.764h93.016c200.35 0 362.763 162.416 362.763 362.764 0.001 200.349-162.413 362.763-362.763 362.763z m-46.506-558.096h-93.016s-37.206 103.838-37.206 186.033 37.206 186.033 37.206 186.033h93.016c79.112 0 204.636-186.033 204.636-186.033S588.553 325.168 509.441 325.168z m-18.603 334.859h-37.206s-37.207-87.18-37.207-148.826 37.207-148.826 37.207-148.826h37.206c64.728 0 167.429 148.826 167.429 148.826S555.566 660.027 490.838 660.027z" p-id="4296" fill="#ffffff"></path></svg>