<?xml version="1.0" standalone="no"?><!DOCTYPE svg PUBLIC "-//W3C//DTD SVG 1.1//EN" "http://www.w3.org/Graphics/SVG/1.1/DTD/svg11.dtd"><svg t="1527557534158" class="icon" style="" viewBox="0 0 1024 1024" version="1.1" xmlns="http://www.w3.org/2000/svg" p-id="2890" xmlns:xlink="http://www.w3.org/1999/xlink" width="32" height="32"><defs><style type="text/css"></style></defs><path d="M512 98.304C282.624 98.304 98.304 282.624 98.304 512s184.32 413.696 413.696 413.696c229.376 0 413.696-184.32 413.696-413.696S741.376 98.304 512 98.304zM888.832 491.52l-331.776 0 233.472-233.472C847.872 323.584 884.736 401.408 888.832 491.52zM512 888.832c-208.896 0-376.832-167.936-376.832-376.832 0-208.896 167.936-376.832 376.832-376.832 98.304 0 184.32 36.864 253.952 98.304l-266.24 266.24c-4.096 4.096-4.096 8.192-4.096 12.288 0 12.288 8.192 20.48 20.48 20.48l376.832 0C876.544 729.088 712.704 888.832 512 888.832z" p-id="2891" fill="#ffffff"></path></svg>